<svg xmlns="http://www.w3.org/2000/svg" xmlns:xlink="http://www.w3.org/1999/xlink" xml:space="preserve" width="160mm"
    height="90mm" version="1.1"
    style="shape-rendering:geometricPrecision; text-rendering:geometricPrecision; image-rendering:optimizeQuality; fill-rule:evenodd; clip-rule:evenodd"
    viewBox="0 0 16000 9000">
    <style>
        #brackets {
            fill: #242424;
        }

        @media (prefers-color-scheme: dark) {
            #brackets {
                fill: #ffffffde;
            }
        }
    </style>
    <path id="triangle" fill="red"
        d="M11305 4502c3,94 -64,193 -293,325l-4542 2622c-156,90 -291,105 -373,60 -82,-44 -134,-151 -134,-416l0 -5245c0,-179 54,-304 134,-353 80,-49 199,-40 428,92l4542 2623c156,89 236,199 238,292z" />
    <path id="brackets" fill-rule="nonzero"
        d="M13986 1345l0 6310c0,156 -127,283 -283,283l-2074 0c-156,0 -283,-127 -283,-283l0 -496c0,-157 127,-283 283,-283l1212 0 0 -4752 -1212 0c-156,0 -283,-126 -283,-283l0 -496c0,-156 127,-283 283,-283l2074 0c156,0 283,127 283,283zm-11972 6310l0 -6310c0,-156 127,-283 283,-283l2074 0c156,0 283,127 283,283l0 496c0,157 -127,283 -283,283l-1212 0 0 4752 1212 0c156,0 283,126 283,283l0 496c0,156 -127,283 -283,283l-2074 0c-156,0 -283,-127 -283,-283z" />
</svg>